<svg xmlns="http://www.w3.org/2000/svg" width="360" height="184" viewBox="0 0 360 184" role="img" aria-labelledby="title desc"><title id="title">JOEYCH mobile verified links</title><desc id="desc">GitHub, personal website, and original eFlyDrone-Boards project links.</desc><defs><linearGradient id="bar" x1="0" x2="1"><stop stop-color="#f5f2eb"/><stop offset="1" stop-color="#fcfbf9"/></linearGradient></defs><style>a:hover rect,a:focus rect{stroke:#16a34a;stroke-width:1}</style><rect width="360" height="184" rx="8" fill="#fcfbf9"/><rect width="360" height="34" fill="url(#bar)"/><path d="M0 34.5H360M0 .5H360M359.5 0V184M0 183.5H360" stroke="#e5e1d8" stroke-width="1" fill="none"/><circle cx="20" cy="17" r="4" fill="#ff5f57"/><circle cx="34" cy="17" r="4" fill="#febc2e"/><circle cx="48" cy="17" r="4" fill="#28c840"/><text x="64" y="21" font-family="'Courier New', Consolas, monospace" font-size="10" font-weight="600" fill="#59636e">connect · document · build</text><a href="https://github.com/JOEYZYC" target="_blank" rel="noopener"><rect x="20" y="56" width="320" height="28" rx="14" fill="#f5f2eb" stroke="#e5e1d8" stroke-width=".5"/><circle cx="34" cy="70" r="3" fill="#16a34a"/><text x="52" y="74" font-family="'Courier New', Consolas, monospace" font-size="12" font-weight="700" fill="#57606a">GitHub</text></a><a href="https://joeyzyc.github.io/joeych-pages/" target="_blank" rel="noopener"><rect x="20" y="94" width="320" height="28" rx="14" fill="#f5f2eb" stroke="#e5e1d8" stroke-width=".5"/><circle cx="34" cy="108" r="3" fill="#16a34a"/><text x="52" y="112" font-family="'Courier New', Consolas, monospace" font-size="12" font-weight="700" fill="#57606a">Website</text></a><a href="https://github.com/JOEYZYC/eFlyDrone-Boards" target="_blank" rel="noopener"><rect x="20" y="132" width="320" height="28" rx="14" fill="#f5f2eb" stroke="#e5e1d8" stroke-width=".5"/><circle cx="34" cy="146" r="3" fill="#16a34a"/><text x="52" y="150" font-family="'Courier New', Consolas, monospace" font-size="12" font-weight="700" fill="#57606a">eFlyDrone-Boards</text></a><rect width="3" height="184" fill="#16a34a" opacity=".7"/></svg>