<svg xmlns="http://www.w3.org/2000/svg" width="900" height="305" viewBox="0 0 900 305" role="img" aria-labelledby="title desc"><title id="title">JOEYCH technical focus areas</title><desc id="desc">Technical categories for embedded development, flight control and robotics, hardware design, and intelligent sensing.</desc><rect width="900" height="305" fill="#0a0c10"/><path d="M0 .5H900M0 304.5H900" stroke="#30363d" stroke-width="1"/><text x="24" y="16" font-family="'Courier New', Consolas, monospace" font-size="9" font-weight="700" letter-spacing="2" fill="#7d8590">// TECHNICAL FOCUS</text><path d="M24 24H876" stroke="#30363d" stroke-width=".5"/><text x="42" y="40" font-family="'Courier New', Consolas, monospace" font-size="9" letter-spacing="1" fill="#7d8590">CATEGORY</text><text x="206" y="40" font-family="'Courier New', Consolas, monospace" font-size="9" letter-spacing="1" fill="#7d8590">FACTUAL FOCUS</text><circle cx="28" cy="51" r="3" fill="#39d353"/><text x="42" y="55" font-family="'Courier New', Consolas, monospace" font-size="12" font-weight="700" fill="#e6edf3">Embedded Development</text><text x="206" y="55" font-family="'Courier New', Consolas, monospace" font-size="11" fill="#8b949e">C/C++ · STM32 · Raspberry Pi Pico</text><path d="M24 69.5H876" stroke="#30363d" stroke-width=".5"/><circle cx="28" cy="87" r="3" fill="#79c0ff"/><text x="42" y="91" font-family="'Courier New', Consolas, monospace" font-size="12" font-weight="700" fill="#e6edf3">Flight Control &amp; Robotics</text><text x="206" y="91" font-family="'Courier New', Consolas, monospace" font-size="11" fill="#8b949e">PX4 · eFlyDrone-Boards</text><path d="M24 105.5H876" stroke="#30363d" stroke-width=".5"/><circle cx="28" cy="123" r="3" fill="#39d353"/><text x="42" y="127" font-family="'Courier New', Consolas, monospace" font-size="12" font-weight="700" fill="#e6edf3">Hardware Design</text><text x="206" y="127" font-family="'Courier New', Consolas, monospace" font-size="11" fill="#8b949e">PCB · Schematic Design</text><path d="M24 141.5H876" stroke="#30363d" stroke-width=".5"/><circle cx="28" cy="159" r="3" fill="#79c0ff"/><text x="42" y="163" font-family="'Courier New', Consolas, monospace" font-size="12" font-weight="700" fill="#e6edf3">Intelligent Sensing</text><text x="206" y="163" font-family="'Courier New', Consolas, monospace" font-size="11" fill="#8b949e">Python · AI · Computer Vision</text><path d="M24 177.5H876" stroke="#30363d" stroke-width=".5"/><text x="24" y="207" font-family="'Courier New', Consolas, monospace" font-size="9" font-weight="700" letter-spacing="2" fill="#7d8590">// TECHNOLOGIES</text><path d="M24 215H876" stroke="#30363d" stroke-width=".5"/><rect x="24" y="225" width="160" height="24" rx="12" fill="#12151b" stroke="#30363d" stroke-width=".5"/><text x="104" y="240.5" text-anchor="middle" font-family="'Courier New', Consolas, monospace" font-size="10" fill="#8b949e">C/C++</text><rect x="194" y="225" width="160" height="24" rx="12" fill="#12151b" stroke="#30363d" stroke-width=".5"/><text x="274" y="240.5" text-anchor="middle" font-family="'Courier New', Consolas, monospace" font-size="10" fill="#8b949e">Python</text><rect x="364" y="225" width="160" height="24" rx="12" fill="#12151b" stroke="#30363d" stroke-width=".5"/><text x="444" y="240.5" text-anchor="middle" font-family="'Courier New', Consolas, monospace" font-size="10" fill="#8b949e">STM32</text><rect x="534" y="225" width="160" height="24" rx="12" fill="#12151b" stroke="#30363d" stroke-width=".5"/><text x="614" y="240.5" text-anchor="middle" font-family="'Courier New', Consolas, monospace" font-size="10" fill="#8b949e">Raspberry Pi Pico</text><rect x="704" y="225" width="160" height="24" rx="12" fill="#12151b" stroke="#30363d" stroke-width=".5"/><text x="784" y="240.5" text-anchor="middle" font-family="'Courier New', Consolas, monospace" font-size="10" fill="#8b949e">PX4</text><rect x="24" y="257" width="160" height="24" rx="12" fill="#12151b" stroke="#30363d" stroke-width=".5"/><text x="104" y="272.5" text-anchor="middle" font-family="'Courier New', Consolas, monospace" font-size="10" fill="#8b949e">PCB</text><rect x="194" y="257" width="160" height="24" rx="12" fill="#12151b" stroke="#30363d" stroke-width=".5"/><text x="274" y="272.5" text-anchor="middle" font-family="'Courier New', Consolas, monospace" font-size="10" fill="#8b949e">Schematic</text><rect x="364" y="257" width="160" height="24" rx="12" fill="#12151b" stroke="#30363d" stroke-width=".5"/><text x="444" y="272.5" text-anchor="middle" font-family="'Courier New', Consolas, monospace" font-size="10" fill="#8b949e">AI</text><rect x="534" y="257" width="160" height="24" rx="12" fill="#12151b" stroke="#30363d" stroke-width=".5"/><text x="614" y="272.5" text-anchor="middle" font-family="'Courier New', Consolas, monospace" font-size="10" fill="#8b949e">Computer Vision</text><rect width="3" height="305" fill="#39d353" opacity=".7"/></svg>